<svg id="Camada_1" data-name="Camada 1" xmlns="http://www.w3.org/2000/svg" viewBox="0 0 400 400"><path d="M311.65,274.34c20.58,10.79,34.65,26.57,40.28,49.06,1.06,4.22.64,8.87.44,13.3-.21,4.81-3.49,7.79-7.26,10.25a44.49,44.49,0,0,1-21.76,6.8c-12.8.8-25.71,1.66-38.46.83-18-1.17-36-4-53-10.47-5.67-2.13-11.35-4.71-14.58-10.42-2.08-3.67-1.27-5,2.9-5.66a141.45,141.45,0,0,0,56.19-21.64A151.66,151.66,0,0,0,311.65,274.34Z" fill="#df005a"/><path d="M185,330.82c-1.26,8.43-8.09,11.93-15.16,14.26a202.88,202.88,0,0,1-27.36,6.9c-18.28,3.31-36.76,5.34-55.37,4.47C76.55,356,66,355.16,56.17,350.54c-9-4.26-12.39-11-10.3-20.77,4.64-21.58,16.73-37.93,35-50,2.15-1.42,3.43-1.4,5.27.68C103.81,300.54,125.35,315,150.91,323,161.86,326.36,173.31,328.18,185,330.82Z" fill="#df005a"/><path d="M151.75,143.63c.33-12,.57-23.89,4.71-35.33q4-11,13.07-9.67a9.33,9.33,0,0,1,7.54,6.53c2,5.82,4.17,11.9,4.37,17.93a327.51,327.51,0,0,1-.89,38.37c-.49,5.83-2.87,11.81-5.63,17.07-3.62,6.89-12.43,7.08-16.38.43a43.46,43.46,0,0,1-5.25-14.5C152.13,157.63,152.2,150.58,151.75,143.63Zm25.42-24.74c-1-3.91-1.85-7.88-3.15-11.69-1-3-3.51-4.31-6.73-4.28a6.16,6.16,0,0,0-6.19,4.55A64.73,64.73,0,0,0,158.63,123c0,3.37,1.53,7,3.21,10.08,2.17,4,7.42,4.06,10.38.61C175.84,129.51,176.37,124.35,177.17,118.89Zm-20.95,33.47c.73,8.25,1.4,15.65,5.33,22.24,2.55,4.29,6.63,4.71,9.55.69,4.64-6.38,5.26-14,6.35-22.11C169.08,160.93,162.31,159.37,156.22,152.36Z"/><path d="M245.17,138.4c-.22,11.74-.59,23.42-4.74,34.57a22,22,0,0,1-4.22,7.33c-4.64,4.95-11.56,4.07-15.3-1.56s-5.15-12.17-5.37-18.72c-.38-11.56-.56-23.16.05-34.7.42-8,1.56-16.12,6.72-22.85,5-6.5,12.94-6.22,16.73,1.09a50.38,50.38,0,0,1,4.78,15.11C244.86,125.15,244.77,131.81,245.17,138.4ZM220.6,119.8c1.06,4,1.47,8.33,3.32,11.91,3.12,6,9.81,5.79,12.64-.41a28.41,28.41,0,0,0,.28-23.82c-1-2.28-4.36-4.71-6.75-4.82-2.08-.1-5.23,2.54-6.26,4.74C222.09,111.08,221.67,115.37,220.6,119.8Zm-1.24,33.08-1.21.3c1.76,6.65,3.23,13.39,5.46,19.87.67,1.94,3.48,4.38,5.28,4.36,2.06,0,4.79-2.1,6-4,3.79-6.18,4.32-13.35,5.47-20.82C232.66,159.87,226.79,160,219.36,152.88Z"/><path d="M124.51,191.32c-5.1-.43-12.47-.86-18.16-6.45-3.49-3.43-3.65-8-.55-11.7,4.83-5.85,11.17-8.42,18.63-8.7,7-.25,13.62.59,19.47,4.85,7.1,5.17,6.78,13.32-.76,17.89C138.41,190.09,133.48,191.32,124.51,191.32Zm1.45-1.77c6.7-.53,12.91-1.4,18-6,4-3.67,3.81-8.09-.35-11.53-8.31-6.87-24.94-7.22-33.46.07C104.33,177,104.92,183.22,112,186,116.46,187.74,121.31,188.4,126,189.55Z" fill="#eb6896"/><path d="M269.89,190.47c-5.3-.16-10.5-1-15.11-4.08-6.58-4.36-7-10.92-1-16s13-6.46,20.52-6.22a25.31,25.31,0,0,1,14.61,4.75c8.29,6.09,6.39,13.26-1,17.34C282.34,189.29,276.27,190.32,269.89,190.47Zm.42-2.66a29.55,29.55,0,0,0,16.25-3.54c6.68-3.5,6.86-9.71.47-13.88-9.73-6.35-23.21-5-31.78,1.63-4.63,3.58-4.33,9,.65,12.31A21.94,21.94,0,0,0,270.31,187.81Z" fill="#eb6896"/><path d="M217.12,196.57A15,15,0,0,1,206,203.8c-7.6,1.14-15.23,1.31-21.6-4-1-.81-.92-2.81-1.35-4.26,1.36.29,3.14.13,4,.94,5,4.64,20.49,5,25.08-.5C214.15,193.52,214.72,193.8,217.12,196.57Z"/><path d="M177.17,118.89c-.8,5.46-1.33,10.62-4.95,14.84-3,3.45-8.21,3.35-10.38-.61-1.68-3.06-3.23-6.71-3.21-10.08a64.73,64.73,0,0,1,2.47-15.57,6.16,6.16,0,0,1,6.19-4.55c3.22,0,5.71,1.27,6.73,4.28C175.32,111,176.14,115,177.17,118.89Z" fill="#fff"/><path d="M156.22,152.36c6.09,7,12.86,8.57,21.23.82-1.09,8.12-1.71,15.73-6.35,22.11-2.92,4-7,3.6-9.55-.69C157.62,168,157,160.61,156.22,152.36Z" fill="#0076c0"/><path d="M220.6,119.8c1.07-4.43,1.49-8.72,3.23-12.4,1-2.2,4.18-4.84,6.26-4.74,2.39.11,5.75,2.54,6.75,4.82a28.41,28.41,0,0,1-.28,23.82c-2.83,6.2-9.52,6.45-12.64.41C222.07,128.13,221.66,123.8,220.6,119.8Z" fill="#fff"/><path d="M219.36,152.88c7.43,7.11,13.3,7,21-.34-1.15,7.47-1.68,14.64-5.47,20.82-1.2,1.95-3.93,4-6,4-1.8,0-4.61-2.42-5.28-4.36-2.23-6.48-3.7-13.22-5.46-19.87Z" fill="#0076c0"/><path d="M126,189.55c-4.65-1.15-9.5-1.81-13.92-3.54-7.12-2.79-7.71-9-1.93-13.95,8.52-7.29,25.15-6.94,33.46-.07,4.16,3.44,4.35,7.86.35,11.53C138.87,188.15,132.66,189,126,189.55Z" fill="#eb6896"/><path d="M270.31,187.81a21.94,21.94,0,0,1-14.41-3.48c-5-3.32-5.28-8.73-.65-12.31,8.57-6.64,22.05-8,31.78-1.63,6.39,4.17,6.21,10.38-.47,13.88A29.55,29.55,0,0,1,270.31,187.81Z" fill="#eb6896"/><path d="M57.5,138.58q-1.66,4.8-3.08,9.75a9.89,9.89,0,0,1-2.4,3.78c-5.67,6.06-12.21,11.47-17,18.17-7.3,10.27-11.09,22-7.77,34.83,4,15.58,14.53,25,29.21,30.54a6.31,6.31,0,0,1,1,.5Z" fill="#f3a5aa"/><path d="M334.31,235a4.88,4.88,0,0,1,1.76-.94c4.06-1.05,8.35-1.35,12.27-2.75a38.27,38.27,0,0,0,25.05-43.67c-3.76-18.65-16.07-30.62-32.5-39a7.07,7.07,0,0,1-3.23-3.79c-1-3.4-2.14-6.72-3.35-10Z" fill="#f3a5aa"/><path d="M53.87,155.65a8.75,8.75,0,0,0,1.35-1.31v-2.58c-.12-.06-.22-.13-.34-.2s-.45,0-.68,0H54l-.47.37a5.9,5.9,0,0,1-1.56.66,6,6,0,0,1-.94.64c-5.59,5.92-12,11.26-16.64,17.82-7.3,10.28-11.09,22-7.77,34.84,4,15.35,19.6,27.68,33.94,33.24l-1.4-4.75C47.52,230,35,219.92,31,207.54c-2.86-8.86-1.88-17.64,1.81-26.11C37.44,170.88,44.75,162.57,53.87,155.65Z"/><path d="M372.82,187.35c-3.77-18.65-16.07-30.62-32.5-39a7,7,0,0,1-3.24-3.79q-2.19-7.29-5-14.18V141.7a26,26,0,0,0,12.81,13.89c12.93,6.75,21.24,18.09,24.31,32.82,2.84,13.6-4.2,29.19-16.58,36.32a47.34,47.34,0,0,1-19.11,5.69,3.84,3.84,0,0,0-1.43.48v6.49c.18-.45.38-.9.56-1.35a4.6,4.6,0,0,1,2.83-2.27c4.06-1.05,8.36-1.35,12.28-2.75A38.28,38.28,0,0,0,372.82,187.35Z"/></svg>