<svg id="Camada_1" data-name="Camada 1" xmlns="http://www.w3.org/2000/svg" viewBox="0 0 400 400"><path d="M312.71,274.34a152.07,152.07,0,0,1-35.29,32.05A141.55,141.55,0,0,1,221.22,328c-4.16.63-5,2-2.9,5.66,3.23,5.71,8.91,8.29,14.59,10.42,17.06,6.43,35,9.3,53,10.47,12.75.83,25.66,0,38.46-.83a44.43,44.43,0,0,0,21.76-6.8c3.78-2.46,7-5.44,7.27-10.25.2-4.43.61-9.08-.45-13.3C347.35,300.91,333.29,285.13,312.71,274.34ZM186,330.82c-11.67-2.64-23.11-4.46-34.07-7.86-25.56-7.94-47.1-22.42-64.78-42.51-1.84-2.08-3.12-2.1-5.27-.68-18.26,12.07-30.35,28.42-35,50-2.09,9.73,1.29,16.51,10.3,20.77,9.8,4.62,20.38,5.42,30.91,5.91,18.62.87,37.09-1.16,55.37-4.47a202.51,202.51,0,0,0,27.36-6.9C177.94,342.75,184.77,339.25,186,330.82Z" fill="#df005a" stroke="#000" stroke-miterlimit="10" stroke-width="3"/><path d="M312.71,274.34c20.58,10.79,34.64,26.57,40.27,49.06,1.06,4.22.65,8.87.45,13.3-.22,4.81-3.49,7.79-7.27,10.25a44.43,44.43,0,0,1-21.76,6.8c-12.8.8-25.71,1.66-38.46.83-18-1.17-36-4-53-10.47-5.68-2.13-11.36-4.71-14.59-10.42-2.07-3.67-1.26-5,2.9-5.66a141.55,141.55,0,0,0,56.2-21.64A152.07,152.07,0,0,0,312.71,274.34Z" fill="none"/><path d="M186,330.82c-1.26,8.43-8.09,11.93-15.17,14.26A202.51,202.51,0,0,1,143.5,352c-18.28,3.31-36.75,5.34-55.37,4.47C77.6,356,67,355.16,57.22,350.54c-9-4.26-12.39-11-10.3-20.77,4.64-21.58,16.73-37.93,35-50,2.15-1.42,3.43-1.4,5.27.68C104.86,300.54,126.4,315,152,323,162.92,326.36,174.36,328.18,186,330.82Z" fill="none"/><path d="M152.8,143.63c.34-12,.57-23.89,4.71-35.33,2.66-7.34,7-10.56,13.08-9.67a9.36,9.36,0,0,1,7.54,6.53c2,5.82,4.16,11.9,4.36,17.93a329.7,329.7,0,0,1-.88,38.37c-.49,5.83-2.88,11.81-5.64,17.07-3.62,6.89-12.42,7.08-16.37.43a43,43,0,0,1-5.25-14.5C153.18,157.63,153.26,150.58,152.8,143.63Zm25.43-24.74c-1-3.91-1.86-7.88-3.16-11.69-1-3-3.51-4.31-6.73-4.28a6.16,6.16,0,0,0-6.19,4.55A64.72,64.72,0,0,0,159.69,123c0,3.37,1.52,7,3.2,10.08,2.18,4,7.42,4.06,10.38.61C176.89,129.51,177.42,124.35,178.23,118.89Zm-21,33.47c.73,8.25,1.41,15.65,5.33,22.24,2.56,4.29,6.63,4.71,9.55.69,4.64-6.38,5.27-14,6.35-22.11C170.13,160.93,163.36,159.37,157.27,152.36Z"/><path d="M246.22,138.4c-.21,11.74-.59,23.42-4.73,34.57a22.22,22.22,0,0,1-4.23,7.33c-4.64,4.95-11.56,4.07-15.3-1.56s-5.15-12.17-5.37-18.72c-.38-11.56-.56-23.16,0-34.7.42-8,1.57-16.12,6.72-22.85,5-6.5,12.94-6.22,16.74,1.09a50.64,50.64,0,0,1,4.77,15.11C245.91,125.15,245.82,131.81,246.22,138.4Zm-24.56-18.6c1.05,4,1.46,8.33,3.31,11.91,3.12,6,9.81,5.79,12.64-.41a28.41,28.41,0,0,0,.29-23.82c-1-2.28-4.37-4.71-6.76-4.82-2.08-.1-5.23,2.54-6.26,4.74C223.15,111.08,222.72,115.37,221.66,119.8Zm-1.25,33.08-1.21.3c1.76,6.65,3.23,13.39,5.46,19.87.67,1.94,3.48,4.38,5.28,4.36,2.06,0,4.79-2.1,6-4,3.79-6.18,4.33-13.35,5.47-20.82C233.71,159.87,227.84,160,220.41,152.88Z"/><path d="M218.17,196.57a15,15,0,0,1-11.11,7.23c-7.61,1.14-15.24,1.31-21.61-4-1-.81-.92-2.81-1.34-4.26,1.35.29,3.13.13,4,.94,5,4.64,20.49,5,25.08-.5C215.21,193.52,215.77,193.8,218.17,196.57Z"/><path d="M178.23,118.89c-.81,5.46-1.34,10.62-5,14.84-3,3.45-8.2,3.35-10.38-.61-1.68-3.06-3.23-6.71-3.2-10.08a64.72,64.72,0,0,1,2.46-15.57,6.16,6.16,0,0,1,6.19-4.55c3.22,0,5.71,1.27,6.73,4.28C176.37,111,177.2,115,178.23,118.89Z" fill="#fff"/><path d="M157.27,152.36c6.09,7,12.86,8.57,21.23.82-1.08,8.12-1.71,15.73-6.35,22.11-2.92,4-7,3.6-9.55-.69C158.68,168,158,160.61,157.27,152.36Z" fill="#0076c0"/><path d="M221.66,119.8c1.06-4.43,1.49-8.72,3.22-12.4,1-2.2,4.18-4.84,6.26-4.74,2.39.11,5.75,2.54,6.76,4.82a28.41,28.41,0,0,1-.29,23.82c-2.83,6.2-9.52,6.45-12.64.41C223.12,128.13,222.71,123.8,221.66,119.8Z" fill="#fff"/><path d="M220.41,152.88c7.43,7.11,13.3,7,21-.34-1.14,7.47-1.68,14.64-5.47,20.82-1.2,1.95-3.93,4-6,4-1.8,0-4.61-2.42-5.28-4.36-2.23-6.48-3.7-13.22-5.46-19.87Z" fill="#0076c0"/><path d="M127,189.55c-4.65-1.15-9.49-1.81-13.92-3.54-7.12-2.79-7.71-9-1.93-13.95,8.52-7.29,25.15-6.94,33.46-.07,4.17,3.44,4.35,7.86.35,11.53C139.92,188.15,133.72,189,127,189.55Z" fill="#eb6896"/><path d="M271.36,187.81A22,22,0,0,1,257,184.33c-5-3.32-5.28-8.73-.64-12.31,8.56-6.64,22.05-8,31.77-1.63,6.39,4.17,6.21,10.38-.47,13.88A29.55,29.55,0,0,1,271.36,187.81Z" fill="#eb6896"/><path d="M53.87,155.65a8.75,8.75,0,0,0,1.35-1.31v-2.58c-.12-.06-.22-.13-.34-.2s-.45,0-.68,0H54l-.47.37a5.9,5.9,0,0,1-1.56.66,6,6,0,0,1-.94.64c-5.59,5.92-12,11.26-16.64,17.82-7.3,10.28-11.09,22-7.77,34.84,4,15.35,19.6,27.68,33.94,33.24l-1.4-4.75C47.52,230,35,219.92,31,207.54c-2.86-8.86-1.88-17.64,1.81-26.11C37.44,170.88,44.75,162.57,53.87,155.65Z"/><path d="M372.82,187.35c-3.77-18.65-16.07-30.62-32.5-39a7,7,0,0,1-3.24-3.79q-2.19-7.29-5-14.18V141.7a26,26,0,0,0,12.81,13.89c12.93,6.75,21.24,18.09,24.31,32.82,2.84,13.6-4.2,29.19-16.58,36.32a47.34,47.34,0,0,1-19.11,5.69,3.84,3.84,0,0,0-1.43.48v6.49c.18-.45.38-.9.56-1.35a4.6,4.6,0,0,1,2.83-2.27c4.06-1.05,8.36-1.35,12.28-2.75A38.28,38.28,0,0,0,372.82,187.35Z"/></svg>