<svg id="Camada_1" data-name="Camada 1" xmlns="http://www.w3.org/2000/svg" viewBox="0 0 400 400"><path d="M313.89,271.19c1,.67,1.89,1.31,2.82,1.82,19.5,10.71,32.76,26.52,38.43,48.13A46.14,46.14,0,0,1,356.35,337c-.66,6.8-5.48,11.16-11.3,14.36-8,4.41-16.84,6.29-25.76,6.69-12.56.56-25.23,1-37.72-.07-19.13-1.62-38.21-4.42-55.91-12.63a27,27,0,0,1-8.23-5.64c-2.43-2.57-4-6-6.47-9.93H189c-1.86,13.59-12.6,17.53-23.27,20.5-11.29,3.13-23,4.94-34.53,7.05-16.77,3.07-33.76,3.36-50.7,2.46-10.37-.56-20.72-2.2-29.85-8.1-6.42-4.16-8.89-9.9-8.67-17.37.32-11.07,4.32-20.88,9.92-30.1,7.29-12,16.63-22.06,29.66-29a89.14,89.14,0,0,1-5.83-8.12c-5-8.87-9.7-17.92-14.75-26.76a9.87,9.87,0,0,0-4.61-4.16c-14.68-5.52-25.2-14.95-29.22-30.54-3.32-12.86.47-24.56,7.77-34.83,4.76-6.7,11.31-12.11,17-18.17a9.92,9.92,0,0,0,2.41-3.78c6-21.32,15.74-40.62,30.22-57.58C103,69.65,126,55,152.9,46.44a139.12,139.12,0,0,1,51.92-6.37c31.58,2.19,60,13,84.73,32.95,23.55,19,39.32,43.35,48,72.35a7,7,0,0,0,3.24,3.79c16.43,8.38,28.73,20.35,32.5,39a38.27,38.27,0,0,1-25.05,43.67c-3.92,1.4-8.22,1.7-12.28,2.75a4.6,4.6,0,0,0-2.83,2.27A149.27,149.27,0,0,1,313.89,271.19ZM196.45,327.12c10-1.32,20-2.17,29.85-4.05a133.43,133.43,0,0,0,43.48-17,142.61,142.61,0,0,0,41.76-37.92,152.14,152.14,0,0,0,18.78-34.25,5.24,5.24,0,0,1,3.68-2.64,47.18,47.18,0,0,0,19.11-5.69c12.39-7.13,19.42-22.72,16.58-36.32-3.07-14.73-11.38-26.07-24.31-32.82-8-4.19-11.62-9.75-14.3-17.85-8.95-27-25.32-49.08-48.13-66-23-17-48.73-26.87-77.58-28.46a144.56,144.56,0,0,0-44.39,4C131.72,55.7,107.06,70.76,87.29,93.8c-14.21,16.57-23.6,35.53-29.44,56.43a10.56,10.56,0,0,1-3.46,5.19c-9.12,6.91-16.43,15.23-21,25.77-3.69,8.48-4.67,17.25-1.8,26.11,4.32,13.38,13.91,21.41,27.06,25.53,2.25.71,4.15,1.32,5.2,4a135.45,135.45,0,0,0,43.37,58.34C133.26,315.75,163,326.21,196.45,327.12Zm115.2-52.78a151.66,151.66,0,0,1-35.29,32.05A141.45,141.45,0,0,1,220.17,328c-4.17.63-5,2-2.9,5.66,3.23,5.71,8.91,8.29,14.58,10.42,17.07,6.43,35,9.3,53,10.47,12.75.83,25.66,0,38.46-.83a44.49,44.49,0,0,0,21.76-6.8c3.77-2.46,7.05-5.44,7.26-10.25.2-4.43.62-9.08-.44-13.3C346.3,300.91,332.23,285.13,311.65,274.34ZM185,330.82c-11.66-2.64-23.11-4.46-34.06-7.86-25.56-7.94-47.1-22.42-64.78-42.51-1.84-2.08-3.12-2.1-5.27-.68-18.26,12.07-30.35,28.42-35,50-2.09,9.73,1.29,16.51,10.3,20.77,9.8,4.62,20.38,5.42,30.91,5.91,18.61.87,37.09-1.16,55.37-4.47a202.88,202.88,0,0,0,27.36-6.9C176.88,342.75,183.71,339.25,185,330.82Z"/><path d="M196.45,327.12c-33.43-.91-63.19-11.37-89.26-31.91a135.45,135.45,0,0,1-43.37-58.34c-1-2.72-3-3.33-5.2-4-13.15-4.12-22.74-12.15-27.06-25.53-2.87-8.86-1.89-17.63,1.8-26.11,4.6-10.54,11.91-18.86,21-25.77a10.56,10.56,0,0,0,3.46-5.19c5.84-20.9,15.23-39.86,29.44-56.43,19.77-23,44.43-38.1,73.69-45.67a144.56,144.56,0,0,1,44.39-4C234.22,45.72,260,55.6,283,72.59c22.81,16.88,39.18,38.93,48.13,66,2.68,8.1,6.27,13.66,14.3,17.85,12.93,6.75,21.24,18.09,24.31,32.82,2.84,13.6-4.19,29.19-16.58,36.32A47.18,47.18,0,0,1,334,231.23a5.24,5.24,0,0,0-3.68,2.64,152.14,152.14,0,0,1-18.78,34.25A142.61,142.61,0,0,1,269.78,306a133.43,133.43,0,0,1-43.48,17C216.45,325,206.4,325.8,196.45,327.12Zm-44.7-183.49c.45,7,.38,14,1.54,20.83a43.46,43.46,0,0,0,5.25,14.5c4,6.65,12.76,6.46,16.38-.43,2.76-5.26,5.14-11.24,5.63-17.07a327.51,327.51,0,0,0,.89-38.37c-.2-6-2.38-12.11-4.37-17.93a9.33,9.33,0,0,0-7.54-6.53q-9.1-1.34-13.07,9.67C152.32,119.74,152.08,131.66,151.75,143.63Zm93.42-5.23c-.4-6.59-.31-13.25-1.35-19.73A50.38,50.38,0,0,0,239,103.56c-3.79-7.31-11.74-7.59-16.73-1.09-5.16,6.73-6.3,14.87-6.72,22.85-.61,11.54-.43,23.14-.05,34.7.22,6.55,1.61,13,5.37,18.72s10.66,6.51,15.3,1.56a22,22,0,0,0,4.22-7.33C244.58,161.82,245,150.14,245.17,138.4ZM124.51,191.32c9,0,13.9-1.23,18.63-4.11,7.54-4.57,7.86-12.72.76-17.89-5.85-4.26-12.5-5.1-19.47-4.85-7.46.28-13.8,2.85-18.63,8.7-3.1,3.75-2.94,8.27.55,11.7C112,190.46,119.41,190.89,124.51,191.32Zm145.38-.85c6.38-.15,12.45-1.18,18-4.26,7.36-4.08,9.26-11.25,1-17.34a25.31,25.31,0,0,0-14.61-4.75c-7.48-.24-14.6,1.13-20.52,6.22s-5.54,11.69,1,16C259.39,189.44,264.59,190.31,269.89,190.47Zm-52.77,6.1c-2.4-2.77-3-3-5-.63-4.59,5.51-20.07,5.14-25.08.5-.87-.81-2.65-.65-4-.94.43,1.45.38,3.45,1.35,4.26,6.37,5.35,14,5.18,21.6,4A15,15,0,0,0,217.12,196.57Z" fill="#fff"/><path d="M311.65,274.34c20.58,10.79,34.65,26.57,40.28,49.06,1.06,4.22.64,8.87.44,13.3-.21,4.81-3.49,7.79-7.26,10.25a44.49,44.49,0,0,1-21.76,6.8c-12.8.8-25.71,1.66-38.46.83-18-1.17-36-4-53-10.47-5.67-2.13-11.35-4.71-14.58-10.42-2.08-3.67-1.27-5,2.9-5.66a141.45,141.45,0,0,0,56.19-21.64A151.66,151.66,0,0,0,311.65,274.34Z" fill="#df005a"/><path d="M185,330.82c-1.26,8.43-8.09,11.93-15.16,14.26a202.88,202.88,0,0,1-27.36,6.9c-18.28,3.31-36.76,5.34-55.37,4.47C76.55,356,66,355.16,56.17,350.54c-9-4.26-12.39-11-10.3-20.77,4.64-21.58,16.73-37.93,35-50,2.15-1.42,3.43-1.4,5.27.68C103.81,300.54,125.35,315,150.91,323,161.86,326.36,173.31,328.18,185,330.82Z" fill="#df005a"/><path d="M151.75,143.63c.33-12,.57-23.89,4.71-35.33q4-11,13.07-9.67a9.33,9.33,0,0,1,7.54,6.53c2,5.82,4.17,11.9,4.37,17.93a327.51,327.51,0,0,1-.89,38.37c-.49,5.83-2.87,11.81-5.63,17.07-3.62,6.89-12.43,7.08-16.38.43a43.46,43.46,0,0,1-5.25-14.5C152.13,157.63,152.2,150.58,151.75,143.63Zm25.42-24.74c-1-3.91-1.85-7.88-3.15-11.69-1-3-3.51-4.31-6.73-4.28a6.16,6.16,0,0,0-6.19,4.55A64.73,64.73,0,0,0,158.63,123c0,3.37,1.53,7,3.21,10.08,2.17,4,7.42,4.06,10.38.61C175.84,129.51,176.37,124.35,177.17,118.89Zm-20.95,33.47c.73,8.25,1.4,15.65,5.33,22.24,2.55,4.29,6.63,4.71,9.55.69,4.64-6.38,5.26-14,6.35-22.11C169.08,160.93,162.31,159.37,156.22,152.36Z"/><path d="M245.17,138.4c-.22,11.74-.59,23.42-4.74,34.57a22,22,0,0,1-4.22,7.33c-4.64,4.95-11.56,4.07-15.3-1.56s-5.15-12.17-5.37-18.72c-.38-11.56-.56-23.16.05-34.7.42-8,1.56-16.12,6.72-22.85,5-6.5,12.94-6.22,16.73,1.09a50.38,50.38,0,0,1,4.78,15.11C244.86,125.15,244.77,131.81,245.17,138.4ZM220.6,119.8c1.06,4,1.47,8.33,3.32,11.91,3.12,6,9.81,5.79,12.64-.41a28.41,28.41,0,0,0,.28-23.82c-1-2.28-4.36-4.71-6.75-4.82-2.08-.1-5.23,2.54-6.26,4.74C222.09,111.08,221.67,115.37,220.6,119.8Zm-1.24,33.08-1.21.3c1.76,6.65,3.23,13.39,5.46,19.87.67,1.94,3.48,4.38,5.28,4.36,2.06,0,4.79-2.1,6-4,3.79-6.18,4.32-13.35,5.47-20.82C232.66,159.87,226.79,160,219.36,152.88Z"/><path d="M124.51,191.32c-5.1-.43-12.47-.86-18.16-6.45-3.49-3.43-3.65-8-.55-11.7,4.83-5.85,11.17-8.42,18.63-8.7,7-.25,13.62.59,19.47,4.85,7.1,5.17,6.78,13.32-.76,17.89C138.41,190.09,133.48,191.32,124.51,191.32Zm1.45-1.77c6.7-.53,12.91-1.4,18-6,4-3.67,3.81-8.09-.35-11.53-8.31-6.87-24.94-7.22-33.46.07C104.33,177,104.92,183.22,112,186,116.46,187.74,121.31,188.4,126,189.55Z" fill="#eb6896"/><path d="M269.89,190.47c-5.3-.16-10.5-1-15.11-4.08-6.58-4.36-7-10.92-1-16s13-6.46,20.52-6.22a25.31,25.31,0,0,1,14.61,4.75c8.29,6.09,6.39,13.26-1,17.34C282.34,189.29,276.27,190.32,269.89,190.47Zm.42-2.66a29.55,29.55,0,0,0,16.25-3.54c6.68-3.5,6.86-9.71.47-13.88-9.73-6.35-23.21-5-31.78,1.63-4.63,3.58-4.33,9,.65,12.31A21.94,21.94,0,0,0,270.31,187.81Z" fill="#eb6896"/><path d="M217.12,196.57A15,15,0,0,1,206,203.8c-7.6,1.14-15.23,1.31-21.6-4-1-.81-.92-2.81-1.35-4.26,1.36.29,3.14.13,4,.94,5,4.64,20.49,5,25.08-.5C214.15,193.52,214.72,193.8,217.12,196.57Z"/><path d="M177.17,118.89c-.8,5.46-1.33,10.62-4.95,14.84-3,3.45-8.21,3.35-10.38-.61-1.68-3.06-3.23-6.71-3.21-10.08a64.73,64.73,0,0,1,2.47-15.57,6.16,6.16,0,0,1,6.19-4.55c3.22,0,5.71,1.27,6.73,4.28C175.32,111,176.14,115,177.17,118.89Z" fill="#fff"/><path d="M156.22,152.36c6.09,7,12.86,8.57,21.23.82-1.09,8.12-1.71,15.73-6.35,22.11-2.92,4-7,3.6-9.55-.69C157.62,168,157,160.61,156.22,152.36Z" fill="#0076c0"/><path d="M220.6,119.8c1.07-4.43,1.49-8.72,3.23-12.4,1-2.2,4.18-4.84,6.26-4.74,2.39.11,5.75,2.54,6.75,4.82a28.41,28.41,0,0,1-.28,23.82c-2.83,6.2-9.52,6.45-12.64.41C222.07,128.13,221.66,123.8,220.6,119.8Z" fill="#fff"/><path d="M219.36,152.88c7.43,7.11,13.3,7,21-.34-1.15,7.47-1.68,14.64-5.47,20.82-1.2,1.95-3.93,4-6,4-1.8,0-4.61-2.42-5.28-4.36-2.23-6.48-3.7-13.22-5.46-19.87Z" fill="#0076c0"/><path d="M126,189.55c-4.65-1.15-9.5-1.81-13.92-3.54-7.12-2.79-7.71-9-1.93-13.95,8.52-7.29,25.15-6.94,33.46-.07,4.16,3.44,4.35,7.86.35,11.53C138.87,188.15,132.66,189,126,189.55Z" fill="#eb6896"/><path d="M270.31,187.81a21.94,21.94,0,0,1-14.41-3.48c-5-3.32-5.28-8.73-.65-12.31,8.57-6.64,22.05-8,31.78-1.63,6.39,4.17,6.21,10.38-.47,13.88A29.55,29.55,0,0,1,270.31,187.81Z" fill="#eb6896"/></svg>